<svg xmlns="http://www.w3.org/2000/svg" viewBox="0 0 320 240"><rect width="320" height="240" rx="40" fill="#11151e"/><circle cx="135" cy="132" r="70" fill="#f5c842"/><circle cx="201" cy="94" r="48" fill="#ffe58a"/><path d="M205 50c7-28 32-31 42-7 18-12 36 3 28 22-8 17-34 21-54 10z" fill="#ff405c"/><circle cx="214" cy="87" r="7"/><path d="m240 101 47 11-45 20z" fill="#ff9b38"/><path d="M78 119c-43-25-55-2-27 23 19 17 37 15 49 3" fill="#ffe58a"/><path d="M121 191v27m56-27v27" stroke="#ff9b38" stroke-width="12" stroke-linecap="round"/><path d="M107 218h30m25 0h30" stroke="#ff9b38" stroke-width="9" stroke-linecap="round"/></svg>